<svg width="64" height="64" viewBox="0 0 128 128" fill="none" xmlns="http://www.w3.org/2000/svg">
  <rect width="128" height="128" rx="28" fill="#F6F8FC"/>
  <path d="M37 28C39.2 24.2 44.1 22.9 47.9 25.1L66.4 35.9L51.4 61.8H20L37 28Z" fill="#1A73E8"/>
  <path d="M69.4 37.6L80.1 25.5C82.9 22.3 87.8 21.8 91.2 24.4C92 25 92.7 25.7 93.2 26.6L108 52.6C110.1 56.4 108.8 61.2 105 63.4L88.2 73.1L69.4 37.6Z" fill="#34A853"/>
  <path d="M22 66.5H53.2L69.6 97.2C71.7 101 70.3 105.8 66.6 108L63.5 109.8C59.8 112 55 110.8 52.7 107.2L22 66.5Z" fill="#FBBC04"/>
  <path d="M52 64.5L67 39L86 74H61L52 64.5Z" fill="white"/>
  <path d="M64 47.5L73.8 65.9H63.2L57.8 60.2L64 47.5Z" fill="#DCE9FF"/>
</svg>
